<?xml version="1.0" encoding="UTF-8"?> <svg xmlns="http://www.w3.org/2000/svg" width="300" height="284" viewBox="0 0 300 284" fill="none"><rect x="0.5" y="1.46631" width="299" height="281.983" rx="23.5" fill="white"></rect><path d="M263.076 133.42C262.621 130.065 260.774 127.154 257.421 124.521L255.491 123.221L254.199 125.175C252.552 127.691 251.724 131.189 251.997 134.535C252.121 135.71 252.502 137.823 253.694 139.669C252.502 140.323 250.15 141.22 247.02 141.153H217.07H187.12L187.004 141.849C186.441 145.213 186.449 155.714 193.181 163.783C198.298 169.914 205.966 173.026 215.969 173.026C237.663 173.026 253.719 162.911 261.238 144.517C264.194 144.575 270.562 144.533 273.832 138.209C273.915 138.067 274.114 137.681 274.685 136.481L275 135.827L273.162 134.586C271.174 133.235 266.604 132.74 263.084 133.42H263.076ZM235.014 110.966H225.905V119.354H235.014V110.966ZM235.014 121.031H225.905V129.419H235.014V121.031ZM224.249 121.031H215.141V129.419H224.249V121.031ZM213.485 121.031H204.376V129.419H213.485V121.031ZM202.72 131.097H193.612V139.484H202.72V131.097ZM213.485 131.097H204.376V139.484H213.485V131.097ZM224.249 131.097H215.141V139.484H224.249V131.097ZM235.014 131.097H225.905V139.484H235.014V131.097ZM245.778 131.097H236.67V139.484H245.778V131.097Z" fill="#1D63ED"></path><path d="M47.5725 129.602C46.9018 129.602 46.3552 129.828 45.9164 130.273C45.4775 130.717 45.2622 131.288 45.2622 131.967V143.315C43.01 141.453 40.4099 140.514 37.4538 140.514C34.0174 140.514 31.0778 141.755 28.6434 144.246C26.209 146.729 25 149.732 25 153.255C25 156.777 26.2172 159.772 28.6434 162.263C31.0778 164.746 34.0091 165.995 37.4538 165.995C40.8984 165.995 43.7966 164.754 46.2642 162.263C48.6986 159.805 49.9075 156.803 49.9075 153.255V131.967C49.9075 131.288 49.684 130.717 49.2286 130.273C48.7731 129.828 48.2266 129.602 47.5725 129.602ZM44.6495 156.341C44.2437 157.306 43.6889 158.153 42.9851 158.874C42.2813 159.604 41.4532 160.174 40.5093 160.602C39.557 161.03 38.5468 161.24 37.4621 161.24C36.3773 161.24 35.3423 161.03 34.39 160.602C33.4378 160.174 32.618 159.604 31.9224 158.883C31.2269 158.161 30.6721 157.314 30.2664 156.35C29.8606 155.377 29.6536 154.345 29.6536 153.255C29.6536 152.164 29.8606 151.133 30.2664 150.16C30.6721 149.187 31.2269 148.348 31.9224 147.627C32.618 146.905 33.4461 146.335 34.39 145.907C35.3423 145.479 36.3608 145.27 37.4621 145.27C38.5634 145.27 39.557 145.479 40.5093 145.907C41.4615 146.335 42.2813 146.905 42.9851 147.635C43.6889 148.365 44.2437 149.212 44.6495 150.168C45.0552 151.133 45.2622 152.156 45.2622 153.246C45.2622 154.337 45.0552 155.368 44.6495 156.325V156.341ZM149.372 144.255C146.913 141.772 143.973 140.522 140.562 140.522C137.15 140.522 134.186 141.764 131.751 144.255C129.317 146.738 128.108 149.74 128.108 153.263C128.108 156.786 129.325 159.78 131.751 162.271C134.186 164.754 137.117 166.004 140.562 166.004C143.692 166.004 146.399 164.972 148.701 162.909C149.149 162.439 149.372 161.869 149.372 161.206C149.372 160.543 149.157 159.956 148.718 159.512C148.279 159.067 147.724 158.841 147.062 158.841C146.482 158.858 145.969 159.05 145.53 159.436C144.834 160.04 144.081 160.502 143.261 160.803C142.441 161.105 141.547 161.256 140.57 161.256C139.709 161.256 138.881 161.122 138.094 160.845C137.308 160.569 136.571 160.191 135.916 159.696C135.254 159.201 134.683 158.614 134.194 157.918C133.706 157.23 133.333 156.467 133.084 155.628H150.697C151.351 155.628 151.898 155.402 152.353 154.957C152.808 154.513 153.032 153.942 153.032 153.263C153.032 151.502 152.726 149.866 152.121 148.365C151.517 146.855 150.598 145.488 149.389 144.263L149.372 144.255ZM133.068 150.898C133.308 150.067 133.672 149.304 134.161 148.608C134.649 147.92 135.229 147.325 135.892 146.83C136.562 146.335 137.291 145.957 138.094 145.681C138.897 145.404 139.717 145.27 140.562 145.27C141.406 145.27 142.226 145.404 143.021 145.681C143.816 145.957 144.545 146.335 145.199 146.83C145.861 147.325 146.441 147.912 146.929 148.608C147.426 149.296 147.799 150.059 148.056 150.898H133.068ZM173.766 142.116C173.352 141.705 172.831 141.386 172.201 141.151C171.572 140.917 170.885 140.757 170.131 140.665C169.386 140.573 168.682 140.531 168.028 140.531C166.546 140.531 165.155 140.774 163.846 141.26C162.538 141.747 161.329 142.443 160.219 143.349V142.896C160.219 142.242 159.996 141.688 159.54 141.227C159.085 140.766 158.547 140.531 157.909 140.531C157.272 140.531 156.709 140.766 156.253 141.227C155.798 141.688 155.574 142.25 155.574 142.896V163.638C155.574 164.293 155.798 164.846 156.253 165.308C156.709 165.769 157.255 166.004 157.909 166.004C158.563 166.004 159.093 165.769 159.54 165.308C159.996 164.846 160.219 164.284 160.219 163.638V153.263C160.219 152.156 160.426 151.116 160.832 150.143C161.238 149.17 161.793 148.331 162.497 147.61C163.2 146.888 164.028 146.318 164.972 145.907C165.925 145.488 166.935 145.278 168.02 145.278C169.104 145.278 170.131 145.471 171.067 145.848C171.439 146.016 171.762 146.1 172.044 146.1C172.367 146.1 172.673 146.041 172.955 145.916C173.236 145.79 173.485 145.622 173.692 145.404C173.899 145.186 174.064 144.934 174.189 144.641C174.313 144.355 174.379 144.045 174.379 143.71C174.379 143.055 174.172 142.527 173.758 142.116H173.766ZM73.8131 144.255C71.3539 141.772 68.4143 140.522 65.0028 140.522C61.5912 140.522 58.6268 141.764 56.1924 144.255C53.7579 146.738 52.549 149.74 52.549 153.263C52.549 156.786 53.7662 159.78 56.1924 162.271C58.6268 164.754 61.5581 166.004 65.0028 166.004C68.4474 166.004 71.3456 164.762 73.8131 162.271C76.2476 159.814 77.4565 156.811 77.4565 153.263C77.44 151.502 77.1336 149.874 76.5374 148.373C75.933 146.872 75.0304 145.496 73.8131 144.255ZM72.1985 156.341C71.7927 157.306 71.238 158.153 70.5341 158.874C69.8303 159.604 69.0022 160.174 68.0583 160.602C67.1143 161.03 66.0958 161.24 65.0111 161.24C63.9263 161.24 62.8913 161.03 61.939 160.602C60.9868 160.174 60.167 159.604 59.4715 158.883C58.7759 158.161 58.2211 157.314 57.8154 156.35C57.4096 155.377 57.2026 154.345 57.2026 153.255C57.2026 152.164 57.4096 151.133 57.8154 150.16C58.2211 149.187 58.7759 148.348 59.4715 147.627C60.167 146.905 60.9951 146.335 61.939 145.907C62.8913 145.479 63.9098 145.27 65.0111 145.27C66.1124 145.27 67.106 145.479 68.0583 145.907C69.0105 146.335 69.8303 146.905 70.5341 147.635C71.238 148.365 71.7927 149.212 72.1985 150.168C72.6042 151.133 72.8112 152.156 72.8112 153.246C72.8112 154.337 72.6042 155.368 72.1985 156.325V156.341ZM125.591 142.888C125.591 142.569 125.524 142.267 125.4 141.982C125.276 141.697 125.11 141.437 124.903 141.218C124.696 141 124.448 140.824 124.166 140.707C123.885 140.589 123.579 140.522 123.256 140.522C122.792 140.522 122.378 140.64 122.014 140.883L108.715 149.732V131.984C108.715 131.313 108.492 130.751 108.036 130.289C107.581 129.828 107.043 129.593 106.405 129.593C105.767 129.593 105.204 129.828 104.749 130.289C104.293 130.751 104.07 131.313 104.07 131.984V163.605C104.07 164.259 104.293 164.821 104.749 165.291C105.204 165.761 105.751 165.995 106.405 165.995C107.059 165.995 107.589 165.761 108.036 165.291C108.492 164.821 108.715 164.259 108.715 163.605V155.393L111.431 153.573L121.707 165.375C122.121 165.786 122.643 165.987 123.264 165.987C123.587 165.987 123.893 165.928 124.175 165.802C124.456 165.685 124.705 165.509 124.912 165.291C125.119 165.073 125.284 164.821 125.409 164.528C125.533 164.242 125.599 163.932 125.599 163.622C125.599 163.001 125.384 162.447 124.953 161.961L115.389 150.948L124.705 144.758C125.301 144.347 125.591 143.718 125.591 142.871V142.888ZM86.979 147.61C87.6912 146.888 88.5192 146.318 89.4715 145.907C90.4237 145.488 91.4339 145.278 92.5187 145.278C93.4958 145.278 94.3983 145.446 95.2347 145.781C96.0627 146.117 96.8576 146.612 97.6111 147.258C98.0583 147.618 98.5634 147.803 99.1264 147.803C99.7971 147.803 100.344 147.576 100.783 147.123C101.221 146.67 101.437 146.1 101.437 145.421C101.437 144.741 101.172 144.112 100.633 143.626C98.3481 141.562 95.6404 140.531 92.5187 140.531C89.0823 140.531 86.1427 141.772 83.7083 144.263C81.2738 146.746 80.0649 149.749 80.0649 153.271C80.0649 156.794 81.2821 159.789 83.7083 162.28C86.1427 164.762 89.074 166.012 92.5187 166.012C95.6321 166.012 98.3398 164.981 100.633 162.917C101.122 162.414 101.37 161.835 101.37 161.164C101.37 160.493 101.155 159.914 100.716 159.47C100.277 159.025 99.7226 158.799 99.0602 158.799C98.4971 158.816 98.0086 158.983 97.5946 159.302C96.8493 159.956 96.071 160.443 95.2347 160.77C94.4066 161.097 93.504 161.256 92.5187 161.256C91.4339 161.256 90.4237 161.047 89.4715 160.627C88.5192 160.208 87.6912 159.638 86.979 158.925C86.2669 158.212 85.7039 157.356 85.2981 156.392C84.8924 155.419 84.6854 154.379 84.6854 153.271C84.6854 152.164 84.8924 151.124 85.2981 150.151C85.7039 149.178 86.2669 148.34 86.979 147.618V147.61Z" fill="#1D63ED"></path><rect x="0.5" y="1.46631" width="299" height="281.983" rx="23.5" stroke="#E1E2E6"></rect></svg> 